<mxfile host="app.diagrams.net" modified="2023-12-23T01:50:39.536Z" agent="Mozilla/5.0 (Windows NT 10.0; Win64; x64) AppleWebKit/537.36 (KHTML, like Gecko) Chrome/120.0.0.0 Safari/537.36 Edg/120.0.0.0" etag="MFihDXj-tViBI6kAtRSc" version="22.1.11" type="github">
  <diagram name="Página-1" id="DoMTYIOWFA96HwlCENNE">
    <mxGraphModel dx="2319" dy="398" grid="1" gridSize="10" guides="1" tooltips="1" connect="1" arrows="1" fold="1" page="1" pageScale="1" pageWidth="1600" pageHeight="1200" math="0" shadow="0">
      <root>
        <mxCell id="0" />
        <mxCell id="1" parent="0" />
        <mxCell id="wq_cmzW5N2Y1-mYz72yh-4" value="" style="group;fontFamily=Comic Sans MS;" parent="1" vertex="1" connectable="0">
          <mxGeometry x="350" y="560" width="430" height="390" as="geometry" />
        </mxCell>
        <mxCell id="wq_cmzW5N2Y1-mYz72yh-6" value="Presente progresivo" style="text;strokeColor=none;fillColor=none;html=1;fontSize=24;fontStyle=1;verticalAlign=middle;align=center;fontFamily=Comic Sans MS;" parent="wq_cmzW5N2Y1-mYz72yh-4" vertex="1">
          <mxGeometry x="32.25" width="365.5" height="60" as="geometry" />
        </mxCell>
        <mxCell id="dCN5y319V1dZhfIS2Bhl-4" value="" style="group" parent="wq_cmzW5N2Y1-mYz72yh-4" vertex="1" connectable="0">
          <mxGeometry y="60" width="430" height="330" as="geometry" />
        </mxCell>
        <mxCell id="wq_cmzW5N2Y1-mYz72yh-5" value="" style="rounded=1;whiteSpace=wrap;html=1;fillColor=#f5f5f5;fontColor=#333333;strokeColor=#666666;glass=0;shadow=0;arcSize=5;fontFamily=Comic Sans MS;" parent="dCN5y319V1dZhfIS2Bhl-4" vertex="1">
          <mxGeometry width="430" height="330" as="geometry" />
        </mxCell>
        <mxCell id="wq_cmzW5N2Y1-mYz72yh-7" value="&lt;span style=&quot;background-color: initial;&quot;&gt;I am &lt;font color=&quot;#ff0000&quot;&gt;not&lt;/font&gt; being&lt;br&gt;&lt;/span&gt;&lt;br&gt;&lt;span style=&quot;background-color: initial;&quot;&gt;You are &lt;font color=&quot;#ff0000&quot;&gt;not&lt;/font&gt; being&lt;br&gt;&lt;/span&gt;&lt;br&gt;&lt;span style=&quot;background-color: initial;&quot;&gt;He/She/It is &lt;font color=&quot;#ff0000&quot;&gt;not&lt;/font&gt; being&lt;/span&gt;&lt;br&gt;&lt;span style=&quot;background-color: initial;&quot;&gt;&lt;br&gt;We are &lt;font color=&quot;#ff0000&quot;&gt;not&lt;/font&gt; being&lt;br&gt;&lt;/span&gt;&lt;br&gt;&lt;span style=&quot;background-color: initial;&quot;&gt;You are &lt;font color=&quot;#ff0000&quot;&gt;not&lt;/font&gt; being&lt;br&gt;&lt;/span&gt;&lt;br&gt;&lt;span style=&quot;background-color: initial;&quot;&gt;They are &lt;font color=&quot;#ff0000&quot;&gt;not&lt;/font&gt; being&lt;/span&gt;" style="text;strokeColor=none;fillColor=none;html=1;verticalAlign=middle;overflow=hidden;spacingTop=0;whiteSpace=wrap;horizontal=1;spacing=0;fontSize=16;fontFamily=Comic Sans MS;spacingLeft=20;fontColor=#66B2FF;" parent="dCN5y319V1dZhfIS2Bhl-4" vertex="1">
          <mxGeometry y="70" width="215" height="260" as="geometry" />
        </mxCell>
        <mxCell id="wq_cmzW5N2Y1-mYz72yh-8" value="Yo no estoy siendo, Tu no estas siendo, Ella no esta siendo" style="text;html=1;strokeColor=none;fillColor=none;align=center;verticalAlign=middle;whiteSpace=wrap;rounded=0;fontFamily=Comic Sans MS;" parent="dCN5y319V1dZhfIS2Bhl-4" vertex="1">
          <mxGeometry x="43.7" width="356.3" height="60" as="geometry" />
        </mxCell>
        <mxCell id="dCN5y319V1dZhfIS2Bhl-3" value="&lt;span style=&quot;background-color: initial;&quot;&gt;I&#39;m &lt;font color=&quot;#ff0000&quot;&gt;not&lt;/font&gt; being&lt;br&gt;&lt;/span&gt;&lt;br&gt;&lt;span style=&quot;background-color: initial;&quot;&gt;You are&lt;font color=&quot;#ff0000&quot;&gt;n&#39;t&lt;/font&gt; being&lt;br&gt;&lt;/span&gt;&lt;br&gt;&lt;span style=&quot;background-color: initial;&quot;&gt;He/She/It is&lt;font color=&quot;#ff0000&quot;&gt;n&#39;t&lt;/font&gt; being&lt;/span&gt;&lt;br&gt;&lt;span style=&quot;background-color: initial;&quot;&gt;&lt;br&gt;We are&lt;font color=&quot;#ff0000&quot;&gt;n&#39;t&lt;/font&gt; being&lt;br&gt;&lt;/span&gt;&lt;br&gt;&lt;span style=&quot;background-color: initial;&quot;&gt;You are&lt;font color=&quot;#ff0000&quot;&gt;n&#39;t&lt;/font&gt; being&lt;br&gt;&lt;/span&gt;&lt;br&gt;&lt;span style=&quot;background-color: initial;&quot;&gt;They are&lt;font color=&quot;#ff0000&quot;&gt;n&#39;t&lt;/font&gt; being&lt;/span&gt;" style="text;strokeColor=none;fillColor=none;html=1;verticalAlign=middle;overflow=hidden;spacingTop=0;whiteSpace=wrap;horizontal=1;spacing=0;fontSize=16;fontFamily=Comic Sans MS;spacingLeft=20;fontColor=#66B2FF;" parent="dCN5y319V1dZhfIS2Bhl-4" vertex="1">
          <mxGeometry x="235" y="70" width="195" height="260" as="geometry" />
        </mxCell>
        <mxCell id="wq_cmzW5N2Y1-mYz72yh-9" value="" style="group;fontFamily=Comic Sans MS;" parent="1" vertex="1" connectable="0">
          <mxGeometry x="870" y="130" width="410" height="390" as="geometry" />
        </mxCell>
        <mxCell id="wq_cmzW5N2Y1-mYz72yh-10" value="" style="rounded=1;whiteSpace=wrap;html=1;fillColor=#f5f5f5;fontColor=#333333;strokeColor=#666666;glass=0;shadow=0;arcSize=5;fontFamily=Comic Sans MS;" parent="wq_cmzW5N2Y1-mYz72yh-9" vertex="1">
          <mxGeometry y="60" width="410" height="330" as="geometry" />
        </mxCell>
        <mxCell id="wq_cmzW5N2Y1-mYz72yh-11" value="Futuro will" style="text;strokeColor=none;fillColor=none;html=1;fontSize=24;fontStyle=1;verticalAlign=middle;align=center;fontFamily=Comic Sans MS;" parent="wq_cmzW5N2Y1-mYz72yh-9" vertex="1">
          <mxGeometry x="90" width="230" height="60" as="geometry" />
        </mxCell>
        <mxCell id="wq_cmzW5N2Y1-mYz72yh-12" value="&lt;font face=&quot;Comic Sans MS&quot;&gt;&lt;span style=&quot;background-color: initial;&quot;&gt;I will &lt;font color=&quot;#ff0000&quot;&gt;not&lt;/font&gt; be&lt;br&gt;&lt;/span&gt;&lt;br&gt;&lt;span style=&quot;background-color: initial;&quot;&gt;You will &lt;font color=&quot;#ff0000&quot;&gt;not&lt;/font&gt; be&lt;br&gt;&lt;/span&gt;&lt;br&gt;&lt;span style=&quot;background-color: initial;&quot;&gt;He/She/It will &lt;font color=&quot;#ff0000&quot;&gt;not&lt;/font&gt; be&lt;/span&gt;&lt;br&gt;&lt;span style=&quot;background-color: initial;&quot;&gt;&lt;br&gt;We will &lt;font color=&quot;#ff0000&quot;&gt;not&lt;/font&gt; be&lt;br&gt;&lt;/span&gt;&lt;br&gt;&lt;span style=&quot;background-color: initial;&quot;&gt;You will &lt;font color=&quot;#ff0000&quot;&gt;not&lt;/font&gt; be&lt;br&gt;&lt;/span&gt;&lt;br&gt;&lt;span style=&quot;background-color: initial;&quot;&gt;They will &lt;font color=&quot;#ff0000&quot;&gt;not&lt;/font&gt; be&lt;/span&gt;&lt;/font&gt;" style="text;strokeColor=none;fillColor=none;html=1;verticalAlign=middle;overflow=hidden;spacingTop=0;whiteSpace=wrap;horizontal=1;spacing=0;fontSize=16;fontFamily=Comic Sans MS;spacingLeft=20;fontColor=#66B2FF;" parent="wq_cmzW5N2Y1-mYz72yh-9" vertex="1">
          <mxGeometry y="150" width="200" height="240" as="geometry" />
        </mxCell>
        <mxCell id="wq_cmzW5N2Y1-mYz72yh-13" value="Yo seré, Tu serás, Ella será&lt;br&gt;&lt;br&gt;Yo estaré, Tu estarás, Ella estará" style="text;html=1;strokeColor=none;fillColor=none;align=center;verticalAlign=middle;whiteSpace=wrap;rounded=0;fontFamily=Comic Sans MS;" parent="wq_cmzW5N2Y1-mYz72yh-9" vertex="1">
          <mxGeometry x="90" y="70" width="230" height="60" as="geometry" />
        </mxCell>
        <mxCell id="dCN5y319V1dZhfIS2Bhl-13" value="&lt;font face=&quot;Comic Sans MS&quot;&gt;&lt;span style=&quot;background-color: initial;&quot;&gt;I wo&lt;font color=&quot;#ff0000&quot;&gt;n&#39;t&lt;/font&gt; be&lt;br&gt;&lt;/span&gt;&lt;br&gt;&lt;span style=&quot;background-color: initial;&quot;&gt;You wo&lt;font color=&quot;#ff0000&quot;&gt;n&#39;t&lt;/font&gt; be&lt;br&gt;&lt;/span&gt;&lt;br&gt;&lt;span style=&quot;background-color: initial;&quot;&gt;He/She/It wo&lt;font color=&quot;#ff0000&quot;&gt;n&#39;t&lt;/font&gt; be&lt;/span&gt;&lt;br&gt;&lt;span style=&quot;background-color: initial;&quot;&gt;&lt;br&gt;We wo&lt;font color=&quot;#ff0000&quot;&gt;n&#39;t&lt;/font&gt; be&lt;br&gt;&lt;/span&gt;&lt;br&gt;&lt;span style=&quot;background-color: initial;&quot;&gt;You wo&lt;font color=&quot;#ff0000&quot;&gt;n&#39;t&lt;/font&gt; be&lt;br&gt;&lt;/span&gt;&lt;br&gt;&lt;span style=&quot;background-color: initial;&quot;&gt;They wo&lt;font color=&quot;#ff0000&quot;&gt;n&#39;t&lt;/font&gt; be&lt;/span&gt;&lt;/font&gt;" style="text;strokeColor=none;fillColor=none;html=1;verticalAlign=middle;overflow=hidden;spacingTop=0;whiteSpace=wrap;horizontal=1;spacing=0;fontSize=16;fontFamily=Comic Sans MS;spacingLeft=20;fontColor=#66B2FF;" parent="wq_cmzW5N2Y1-mYz72yh-9" vertex="1">
          <mxGeometry x="210" y="150" width="200" height="240" as="geometry" />
        </mxCell>
        <mxCell id="wq_cmzW5N2Y1-mYz72yh-31" value="Algo que ocurrio en el pasado, continua en el presente, y seguira en el futuro" style="text;html=1;strokeColor=none;fillColor=none;align=center;verticalAlign=middle;whiteSpace=wrap;rounded=0;" parent="1" vertex="1">
          <mxGeometry x="720" y="1060" width="230" height="30" as="geometry" />
        </mxCell>
        <mxCell id="wq_cmzW5N2Y1-mYz72yh-32" value="" style="group;fontFamily=Comic Sans MS;" parent="1" vertex="1" connectable="0">
          <mxGeometry x="80" y="1040" width="230" height="390" as="geometry" />
        </mxCell>
        <mxCell id="wq_cmzW5N2Y1-mYz72yh-33" value="" style="rounded=1;whiteSpace=wrap;html=1;fillColor=#f5f5f5;fontColor=#333333;strokeColor=#666666;glass=0;shadow=0;arcSize=5;fontFamily=Comic Sans MS;" parent="wq_cmzW5N2Y1-mYz72yh-32" vertex="1">
          <mxGeometry y="60" width="230" height="330" as="geometry" />
        </mxCell>
        <mxCell id="wq_cmzW5N2Y1-mYz72yh-34" value="Pasado perfecto" style="text;strokeColor=none;fillColor=none;html=1;fontSize=24;fontStyle=1;verticalAlign=middle;align=center;fontFamily=Comic Sans MS;" parent="wq_cmzW5N2Y1-mYz72yh-32" vertex="1">
          <mxGeometry width="230" height="60" as="geometry" />
        </mxCell>
        <mxCell id="wq_cmzW5N2Y1-mYz72yh-35" value="&lt;span style=&quot;background-color: initial;&quot;&gt;I had been&lt;br&gt;&lt;/span&gt;&lt;br&gt;&lt;span style=&quot;background-color: initial;&quot;&gt;You had been&lt;br&gt;&lt;/span&gt;&lt;br&gt;&lt;span style=&quot;background-color: initial;&quot;&gt;He/She/It had been&lt;/span&gt;&lt;br&gt;&lt;span style=&quot;background-color: initial;&quot;&gt;&lt;br&gt;We had been&lt;br&gt;&lt;/span&gt;&lt;br&gt;&lt;span style=&quot;background-color: initial;&quot;&gt;You had been&lt;br&gt;&lt;/span&gt;&lt;br&gt;&lt;span style=&quot;background-color: initial;&quot;&gt;They had been&lt;/span&gt;" style="text;strokeColor=none;fillColor=none;html=1;verticalAlign=middle;overflow=hidden;spacingTop=0;whiteSpace=wrap;horizontal=1;spacing=0;fontSize=16;fontFamily=Comic Sans MS;spacingLeft=20;fontColor=#66B2FF;" parent="wq_cmzW5N2Y1-mYz72yh-32" vertex="1">
          <mxGeometry y="150" width="230" height="240" as="geometry" />
        </mxCell>
        <mxCell id="wq_cmzW5N2Y1-mYz72yh-36" value="Yo había sido, Tu habías sido,&lt;br&gt;Ella había sido&lt;br&gt;&lt;br&gt;Yo habia estado, Tu habias estado,&lt;br&gt;Ella habia estado" style="text;html=1;strokeColor=none;fillColor=none;align=center;verticalAlign=middle;whiteSpace=wrap;rounded=0;fontFamily=Comic Sans MS;spacingTop=0;" parent="wq_cmzW5N2Y1-mYz72yh-32" vertex="1">
          <mxGeometry y="60" width="230" height="80" as="geometry" />
        </mxCell>
        <mxCell id="wq_cmzW5N2Y1-mYz72yh-37" value="Algo que ocurrió antes de que algo mas pasara" style="text;html=1;strokeColor=none;fillColor=none;align=center;verticalAlign=middle;whiteSpace=wrap;rounded=0;" parent="1" vertex="1">
          <mxGeometry x="80" y="1450" width="230" height="30" as="geometry" />
        </mxCell>
        <mxCell id="dCN5y319V1dZhfIS2Bhl-2" value="" style="group" parent="1" vertex="1" connectable="0">
          <mxGeometry x="400" y="130" width="340" height="390" as="geometry" />
        </mxCell>
        <mxCell id="LE9yWc8VUJ7Y_HGT6EMH-2" value="" style="rounded=1;whiteSpace=wrap;html=1;fillColor=#f5f5f5;fontColor=#333333;strokeColor=#666666;glass=0;shadow=0;arcSize=5;fontFamily=Comic Sans MS;container=0;" parent="dCN5y319V1dZhfIS2Bhl-2" vertex="1">
          <mxGeometry y="60" width="340" height="330" as="geometry" />
        </mxCell>
        <mxCell id="wq_cmzW5N2Y1-mYz72yh-1" value="&lt;span style=&quot;background-color: initial;&quot;&gt;I am &lt;font color=&quot;#ff0000&quot;&gt;not&lt;/font&gt;&lt;br&gt;&lt;/span&gt;&lt;br&gt;You are&amp;nbsp;&lt;span style=&quot;color: rgb(255, 0, 0);&quot;&gt;not&lt;/span&gt;&lt;span style=&quot;background-color: initial;&quot;&gt;&lt;br&gt;&lt;/span&gt;&lt;br&gt;&lt;span style=&quot;background-color: initial;&quot;&gt;He/She/It is&amp;nbsp;&lt;/span&gt;&lt;font color=&quot;#ff0000&quot;&gt;not&lt;/font&gt;&lt;br&gt;&lt;span style=&quot;background-color: initial;&quot;&gt;&lt;br&gt;We are &lt;font color=&quot;#ff0000&quot;&gt;not&lt;/font&gt;&lt;br&gt;&lt;/span&gt;&lt;br&gt;You are&amp;nbsp;&lt;span style=&quot;color: rgb(255, 0, 0);&quot;&gt;not&lt;/span&gt;&lt;span style=&quot;background-color: initial;&quot;&gt;&lt;br&gt;&lt;/span&gt;&lt;br&gt;&lt;span style=&quot;background-color: initial;&quot;&gt;They are&amp;nbsp;&lt;/span&gt;&lt;font color=&quot;#ff0000&quot;&gt;not&lt;/font&gt;" style="text;strokeColor=none;fillColor=none;html=1;verticalAlign=middle;overflow=hidden;spacingTop=0;whiteSpace=wrap;horizontal=1;spacing=0;fontSize=16;fontFamily=Comic Sans MS;spacingLeft=20;fontColor=#66B2FF;container=0;" parent="dCN5y319V1dZhfIS2Bhl-2" vertex="1">
          <mxGeometry y="150" width="150" height="240" as="geometry" />
        </mxCell>
        <mxCell id="LE9yWc8VUJ7Y_HGT6EMH-3" value="Presente simple" style="text;strokeColor=none;fillColor=none;html=1;fontSize=24;fontStyle=1;verticalAlign=middle;align=center;fontFamily=Comic Sans MS;container=0;" parent="dCN5y319V1dZhfIS2Bhl-2" vertex="1">
          <mxGeometry x="55" width="230" height="60" as="geometry" />
        </mxCell>
        <mxCell id="wq_cmzW5N2Y1-mYz72yh-2" value="Yo no soy, Tu no eres, Ella no es&lt;br&gt;&lt;br&gt;Yo no estoy, Tu no estas, Ella no esta" style="text;html=1;strokeColor=none;fillColor=none;align=center;verticalAlign=middle;whiteSpace=wrap;rounded=0;fontFamily=Comic Sans MS;container=0;" parent="dCN5y319V1dZhfIS2Bhl-2" vertex="1">
          <mxGeometry x="35" y="70" width="270" height="60" as="geometry" />
        </mxCell>
        <mxCell id="wq_cmzW5N2Y1-mYz72yh-39" value="&lt;span style=&quot;background-color: initial;&quot;&gt;I&#39;m &lt;font color=&quot;#ff0000&quot;&gt;not&lt;/font&gt;&lt;br&gt;&lt;/span&gt;&lt;br&gt;&lt;span style=&quot;background-color: initial;&quot;&gt;You are&lt;font color=&quot;#ff0000&quot;&gt;n&#39;t&lt;/font&gt;&lt;br&gt;&lt;/span&gt;&lt;br&gt;&lt;span style=&quot;background-color: initial;&quot;&gt;He/She/It is&lt;font color=&quot;#ff0000&quot;&gt;n&#39;t&lt;/font&gt;&lt;/span&gt;&lt;br&gt;&lt;br&gt;We&amp;nbsp;are&lt;font style=&quot;border-color: var(--border-color);&quot; color=&quot;#ff0000&quot;&gt;n&#39;t&lt;/font&gt;&lt;span style=&quot;background-color: initial;&quot;&gt;&lt;br&gt;&lt;/span&gt;&lt;br&gt;You&amp;nbsp;are&lt;font style=&quot;border-color: var(--border-color);&quot; color=&quot;#ff0000&quot;&gt;n&#39;t&lt;/font&gt;&lt;span style=&quot;background-color: initial;&quot;&gt;&lt;br&gt;&lt;/span&gt;&lt;br&gt;&lt;span style=&quot;background-color: initial;&quot;&gt;They&amp;nbsp;&lt;/span&gt;are&lt;font style=&quot;border-color: var(--border-color);&quot; color=&quot;#ff0000&quot;&gt;n&#39;t&lt;/font&gt;" style="text;strokeColor=none;fillColor=none;html=1;verticalAlign=middle;overflow=hidden;spacingTop=0;whiteSpace=wrap;horizontal=1;spacing=0;fontSize=16;fontFamily=Comic Sans MS;spacingLeft=20;fontColor=#66B2FF;container=0;" parent="dCN5y319V1dZhfIS2Bhl-2" vertex="1">
          <mxGeometry x="180" y="150" width="140" height="240" as="geometry" />
        </mxCell>
        <mxCell id="dCN5y319V1dZhfIS2Bhl-5" value="" style="group" parent="1" vertex="1" connectable="0">
          <mxGeometry x="930" y="560" width="480" height="390" as="geometry" />
        </mxCell>
        <mxCell id="wq_cmzW5N2Y1-mYz72yh-15" value="" style="rounded=1;whiteSpace=wrap;html=1;fillColor=#f5f5f5;fontColor=#333333;strokeColor=#666666;glass=0;shadow=0;arcSize=5;fontFamily=Comic Sans MS;" parent="dCN5y319V1dZhfIS2Bhl-5" vertex="1">
          <mxGeometry y="60" width="480" height="330" as="geometry" />
        </mxCell>
        <mxCell id="wq_cmzW5N2Y1-mYz72yh-16" value="Futuro going to" style="text;strokeColor=none;fillColor=none;html=1;fontSize=24;fontStyle=1;verticalAlign=middle;align=center;fontFamily=Comic Sans MS;" parent="dCN5y319V1dZhfIS2Bhl-5" vertex="1">
          <mxGeometry x="125" width="230" height="60" as="geometry" />
        </mxCell>
        <mxCell id="wq_cmzW5N2Y1-mYz72yh-17" value="&lt;span style=&quot;background-color: initial;&quot;&gt;I am going to be&lt;br&gt;&lt;/span&gt;&lt;br&gt;You are&amp;nbsp;going to be&lt;span style=&quot;background-color: initial;&quot;&gt;&lt;br&gt;&lt;/span&gt;&lt;br&gt;&lt;span style=&quot;background-color: initial;&quot;&gt;He/She/It is&amp;nbsp;&lt;/span&gt;going to be&lt;br&gt;&lt;br&gt;We are&amp;nbsp;going to be&lt;span style=&quot;background-color: initial;&quot;&gt;&lt;br&gt;&lt;/span&gt;&lt;br&gt;You are&amp;nbsp;going to be&lt;span style=&quot;background-color: initial;&quot;&gt;&lt;br&gt;&lt;/span&gt;&lt;br&gt;&lt;span style=&quot;background-color: initial;&quot;&gt;They are&amp;nbsp;&lt;/span&gt;going to be" style="text;strokeColor=none;fillColor=none;html=1;verticalAlign=middle;overflow=hidden;spacingTop=0;whiteSpace=wrap;horizontal=1;spacing=0;fontSize=16;fontFamily=Comic Sans MS;spacingLeft=20;fontColor=#66B2FF;" parent="dCN5y319V1dZhfIS2Bhl-5" vertex="1">
          <mxGeometry y="130" width="230" height="260" as="geometry" />
        </mxCell>
        <mxCell id="wq_cmzW5N2Y1-mYz72yh-18" value="Yo voy a ser, Tu vas a ser, &lt;br&gt;Ella va a ser" style="text;html=1;strokeColor=none;fillColor=none;align=center;verticalAlign=middle;whiteSpace=wrap;rounded=0;fontFamily=Comic Sans MS;" parent="dCN5y319V1dZhfIS2Bhl-5" vertex="1">
          <mxGeometry x="30" y="60" width="230" height="60" as="geometry" />
        </mxCell>
        <mxCell id="wq_cmzW5N2Y1-mYz72yh-19" value="&lt;span style=&quot;background-color: initial;&quot;&gt;I&#39;m gonna be&lt;br&gt;&lt;/span&gt;&lt;br&gt;You&#39;re gonna be&lt;span style=&quot;background-color: initial;&quot;&gt;&lt;br&gt;&lt;/span&gt;&lt;br&gt;&lt;span style=&quot;background-color: initial;&quot;&gt;He/She/It &#39;s&amp;nbsp;&lt;/span&gt;gonna be&lt;br&gt;&lt;br&gt;We&#39;re gonna be&lt;span style=&quot;background-color: initial;&quot;&gt;&lt;br&gt;&lt;/span&gt;&lt;br&gt;You&#39;re gonna be&lt;span style=&quot;background-color: initial;&quot;&gt;&lt;br&gt;&lt;/span&gt;&lt;br&gt;&lt;span style=&quot;background-color: initial;&quot;&gt;They&#39;re&amp;nbsp;&lt;/span&gt;gonna be" style="text;strokeColor=none;fillColor=none;html=1;verticalAlign=middle;overflow=hidden;spacingTop=0;whiteSpace=wrap;horizontal=1;spacing=0;fontSize=16;fontFamily=Comic Sans MS;spacingLeft=20;fontColor=#66B2FF;" parent="dCN5y319V1dZhfIS2Bhl-5" vertex="1">
          <mxGeometry x="250" y="130" width="230" height="260" as="geometry" />
        </mxCell>
        <mxCell id="wq_cmzW5N2Y1-mYz72yh-20" value="going to = gonna" style="text;html=1;strokeColor=none;fillColor=none;align=center;verticalAlign=middle;whiteSpace=wrap;rounded=0;fontFamily=Comic Sans MS;fontColor=#009900;" parent="dCN5y319V1dZhfIS2Bhl-5" vertex="1">
          <mxGeometry x="295" y="75" width="115" height="30" as="geometry" />
        </mxCell>
        <mxCell id="wq_cmzW5N2Y1-mYz72yh-41" value="" style="rounded=1;whiteSpace=wrap;html=1;fillColor=#f5f5f5;fontColor=#333333;strokeColor=#666666;glass=0;shadow=0;arcSize=5;fontFamily=Comic Sans MS;" parent="1" vertex="1">
          <mxGeometry x="1600" y="228.46" width="1760" height="691.54" as="geometry" />
        </mxCell>
        <mxCell id="wq_cmzW5N2Y1-mYz72yh-42" value="Modales" style="text;strokeColor=none;fillColor=none;html=1;fontSize=24;fontStyle=1;verticalAlign=middle;align=center;fontFamily=Comic Sans MS;" parent="1" vertex="1">
          <mxGeometry x="2190" y="150" width="230" height="78.46153846153847" as="geometry" />
        </mxCell>
        <mxCell id="wq_cmzW5N2Y1-mYz72yh-43" value="&lt;font face=&quot;Comic Sans MS&quot;&gt;&lt;span style=&quot;background-color: initial;&quot;&gt;I can &lt;font color=&quot;#ff0000&quot;&gt;not&lt;/font&gt; be&lt;br&gt;&lt;/span&gt;&lt;br&gt;You can&amp;nbsp;&lt;/font&gt;&lt;font color=&quot;#ff0000&quot;&gt;not&lt;/font&gt;&amp;nbsp;&lt;font face=&quot;Comic Sans MS&quot;&gt;&lt;span style=&quot;background-color: initial;&quot;&gt;be&lt;br&gt;&lt;/span&gt;&lt;br&gt;He/She/It can&amp;nbsp;&lt;/font&gt;&lt;font color=&quot;#ff0000&quot;&gt;not&lt;/font&gt;&lt;font face=&quot;Comic Sans MS&quot;&gt;&lt;span style=&quot;background-color: initial;&quot;&gt;&amp;nbsp;be&lt;/span&gt;&lt;br&gt;&lt;br&gt;We can&amp;nbsp;&lt;/font&gt;&lt;font color=&quot;#ff0000&quot;&gt;not&lt;/font&gt;&amp;nbsp;&lt;font face=&quot;Comic Sans MS&quot;&gt;&lt;span style=&quot;background-color: initial;&quot;&gt;be&lt;br&gt;&lt;/span&gt;&lt;br&gt;You can&amp;nbsp;&lt;/font&gt;&lt;font color=&quot;#ff0000&quot;&gt;not&lt;/font&gt; &lt;font face=&quot;Comic Sans MS&quot;&gt;&lt;span style=&quot;background-color: initial;&quot;&gt;be&lt;br&gt;&lt;/span&gt;&lt;br&gt;They can&amp;nbsp;&lt;/font&gt;&lt;font color=&quot;#ff0000&quot;&gt;not&lt;/font&gt;&amp;nbsp;&lt;font face=&quot;Comic Sans MS&quot;&gt;&lt;span style=&quot;background-color: initial;&quot;&gt;be&lt;/span&gt;&lt;/font&gt;" style="text;strokeColor=none;fillColor=none;html=1;verticalAlign=middle;overflow=hidden;spacingTop=0;whiteSpace=wrap;horizontal=1;spacing=0;fontSize=16;fontFamily=Comic Sans MS;spacingLeft=20;fontColor=#66B2FF;" parent="1" vertex="1">
          <mxGeometry x="1600" y="370" width="210" height="240" as="geometry" />
        </mxCell>
        <mxCell id="wq_cmzW5N2Y1-mYz72yh-44" value="Yo no puedo ser&lt;br&gt;&lt;br&gt;Yo no puedo estar" style="text;html=1;strokeColor=none;fillColor=none;align=center;verticalAlign=middle;whiteSpace=wrap;rounded=0;fontFamily=Comic Sans MS;" parent="1" vertex="1">
          <mxGeometry x="1610" y="285.77" width="130" height="78.46" as="geometry" />
        </mxCell>
        <mxCell id="wq_cmzW5N2Y1-mYz72yh-45" value="&lt;font face=&quot;Comic Sans MS&quot;&gt;&lt;span style=&quot;background-color: initial;&quot;&gt;I would &lt;font color=&quot;#ff0000&quot;&gt;not&lt;/font&gt; be&lt;br&gt;&lt;/span&gt;&lt;br&gt;You&amp;nbsp;&lt;/font&gt;would&lt;font face=&quot;Comic Sans MS&quot;&gt;&lt;span style=&quot;background-color: initial;&quot;&gt;&amp;nbsp;&lt;font color=&quot;#ff0000&quot;&gt;not&lt;/font&gt; be&lt;br&gt;&lt;/span&gt;&lt;br&gt;He/She/It&amp;nbsp;&lt;/font&gt;would&lt;font face=&quot;Comic Sans MS&quot;&gt;&lt;span style=&quot;background-color: initial;&quot;&gt;&amp;nbsp;&lt;font color=&quot;#ff0000&quot;&gt;not&lt;/font&gt; be&lt;/span&gt;&lt;br&gt;&lt;br&gt;We&amp;nbsp;&lt;/font&gt;would&lt;font face=&quot;Comic Sans MS&quot;&gt;&lt;span style=&quot;background-color: initial;&quot;&gt;&amp;nbsp;&lt;font color=&quot;#ff0000&quot;&gt;not&lt;/font&gt; be&lt;br&gt;&lt;/span&gt;&lt;br&gt;You&amp;nbsp;&lt;/font&gt;would&lt;font face=&quot;Comic Sans MS&quot;&gt;&lt;span style=&quot;background-color: initial;&quot;&gt;&amp;nbsp;&lt;font color=&quot;#ff0000&quot;&gt;not&lt;/font&gt; be&lt;br&gt;&lt;/span&gt;&lt;br&gt;They&amp;nbsp;&lt;/font&gt;would&lt;font face=&quot;Comic Sans MS&quot;&gt;&lt;span style=&quot;background-color: initial;&quot;&gt;&amp;nbsp;&lt;font color=&quot;#ff0000&quot;&gt;not&lt;/font&gt; be&lt;/span&gt;&lt;/font&gt;" style="text;strokeColor=none;fillColor=none;html=1;verticalAlign=middle;overflow=hidden;spacingTop=0;whiteSpace=wrap;horizontal=1;spacing=0;fontSize=16;fontFamily=Comic Sans MS;spacingLeft=20;fontColor=#66B2FF;" parent="1" vertex="1">
          <mxGeometry x="1840" y="370" width="230" height="240" as="geometry" />
        </mxCell>
        <mxCell id="wq_cmzW5N2Y1-mYz72yh-46" value="Yo no seria&lt;br&gt;&lt;br&gt;Yo no estaría" style="text;html=1;strokeColor=none;fillColor=none;align=center;verticalAlign=middle;whiteSpace=wrap;rounded=0;fontFamily=Comic Sans MS;" parent="1" vertex="1">
          <mxGeometry x="1870" y="285.77" width="120" height="78.46" as="geometry" />
        </mxCell>
        <mxCell id="wq_cmzW5N2Y1-mYz72yh-47" value="&lt;font face=&quot;Comic Sans MS&quot;&gt;&lt;span style=&quot;background-color: initial;&quot;&gt;I could &lt;font color=&quot;#ff0000&quot;&gt;not&lt;/font&gt; be&lt;br&gt;&lt;/span&gt;&lt;br&gt;You c&lt;/font&gt;ould&lt;font face=&quot;Comic Sans MS&quot;&gt;&lt;span style=&quot;background-color: initial;&quot;&gt;&amp;nbsp;&lt;font color=&quot;#ff0000&quot;&gt;not&lt;/font&gt; be&lt;br&gt;&lt;/span&gt;&lt;br&gt;He/She/It c&lt;/font&gt;ould&lt;font face=&quot;Comic Sans MS&quot;&gt;&lt;span style=&quot;background-color: initial;&quot;&gt;&amp;nbsp;&lt;font color=&quot;#ff0000&quot;&gt;not&lt;/font&gt; be&lt;/span&gt;&lt;br&gt;&lt;br&gt;We&amp;nbsp;&lt;/font&gt;could&lt;font face=&quot;Comic Sans MS&quot;&gt;&lt;span style=&quot;background-color: initial;&quot;&gt;&amp;nbsp;&lt;font color=&quot;#ff0000&quot;&gt;not&lt;/font&gt; be&lt;br&gt;&lt;/span&gt;&lt;br&gt;You c&lt;/font&gt;ould&lt;font face=&quot;Comic Sans MS&quot;&gt;&lt;span style=&quot;background-color: initial;&quot;&gt;&amp;nbsp;&lt;font color=&quot;#ff0000&quot;&gt;not&lt;/font&gt; be&lt;br&gt;&lt;/span&gt;&lt;br&gt;They c&lt;/font&gt;ould &lt;font color=&quot;#ff0000&quot;&gt;not&lt;/font&gt;&lt;font face=&quot;Comic Sans MS&quot;&gt;&lt;span style=&quot;background-color: initial;&quot;&gt;&amp;nbsp;be&lt;/span&gt;&lt;/font&gt;" style="text;strokeColor=none;fillColor=none;html=1;verticalAlign=middle;overflow=hidden;spacingTop=0;whiteSpace=wrap;horizontal=1;spacing=0;fontSize=16;fontFamily=Comic Sans MS;spacingLeft=20;fontColor=#66B2FF;" parent="1" vertex="1">
          <mxGeometry x="2100" y="376.54" width="240" height="226.92" as="geometry" />
        </mxCell>
        <mxCell id="wq_cmzW5N2Y1-mYz72yh-48" value="Yo no podría ser&lt;br&gt;&lt;br&gt;Yo no podría estar" style="text;html=1;strokeColor=none;fillColor=none;align=center;verticalAlign=middle;whiteSpace=wrap;rounded=0;fontFamily=Comic Sans MS;" parent="1" vertex="1">
          <mxGeometry x="2120" y="285.77" width="140" height="78.46" as="geometry" />
        </mxCell>
        <mxCell id="wq_cmzW5N2Y1-mYz72yh-49" value="&lt;font face=&quot;Comic Sans MS&quot;&gt;&lt;span style=&quot;background-color: initial;&quot;&gt;I should &lt;font color=&quot;#ff0000&quot;&gt;not&lt;/font&gt; be&lt;br&gt;&lt;/span&gt;&lt;br&gt;You should&lt;/font&gt;&lt;font face=&quot;Comic Sans MS&quot;&gt;&lt;span style=&quot;background-color: initial;&quot;&gt;&amp;nbsp;&lt;font color=&quot;#ff0000&quot;&gt;not&lt;/font&gt; be&lt;br&gt;&lt;/span&gt;&lt;br&gt;He/She/It sh&lt;/font&gt;ould&lt;font face=&quot;Comic Sans MS&quot;&gt;&lt;span style=&quot;background-color: initial;&quot;&gt;&amp;nbsp;&lt;font color=&quot;#ff0000&quot;&gt;not&lt;/font&gt; be&lt;/span&gt;&lt;br&gt;&lt;br&gt;We sh&lt;/font&gt;ould&lt;font face=&quot;Comic Sans MS&quot;&gt;&lt;span style=&quot;background-color: initial;&quot;&gt;&amp;nbsp;&lt;font color=&quot;#ff0000&quot;&gt;not&lt;/font&gt; be&lt;br&gt;&lt;/span&gt;&lt;br&gt;You sh&lt;/font&gt;ould&lt;font face=&quot;Comic Sans MS&quot;&gt;&lt;span style=&quot;background-color: initial;&quot;&gt;&amp;nbsp;&lt;font color=&quot;#ff0000&quot;&gt;not&lt;/font&gt; be&lt;br&gt;&lt;/span&gt;&lt;br&gt;They sh&lt;/font&gt;ould&lt;font face=&quot;Comic Sans MS&quot;&gt;&lt;span style=&quot;background-color: initial;&quot;&gt;&amp;nbsp;&lt;font color=&quot;#ff0000&quot;&gt;not&lt;/font&gt; be&lt;/span&gt;&lt;/font&gt;" style="text;strokeColor=none;fillColor=none;html=1;verticalAlign=middle;overflow=hidden;spacingTop=0;whiteSpace=wrap;horizontal=1;spacing=0;fontSize=16;fontFamily=Comic Sans MS;spacingLeft=20;fontColor=#66B2FF;" parent="1" vertex="1">
          <mxGeometry x="2350" y="375" width="270" height="230" as="geometry" />
        </mxCell>
        <mxCell id="wq_cmzW5N2Y1-mYz72yh-50" value="Yo debería ser&lt;br&gt;&lt;br&gt;Yo debería estar" style="text;html=1;strokeColor=none;fillColor=none;align=center;verticalAlign=middle;whiteSpace=wrap;rounded=0;fontFamily=Comic Sans MS;" parent="1" vertex="1">
          <mxGeometry x="2370" y="280.0023076923077" width="100" height="78.46153846153847" as="geometry" />
        </mxCell>
        <mxCell id="wq_cmzW5N2Y1-mYz72yh-51" value="&lt;font face=&quot;Comic Sans MS&quot;&gt;&lt;span style=&quot;background-color: initial;&quot;&gt;I must &lt;font color=&quot;#ff0000&quot;&gt;not&lt;/font&gt; be&lt;br&gt;&lt;/span&gt;&lt;br&gt;You must &lt;font color=&quot;#ff0000&quot;&gt;not&lt;/font&gt;&lt;/font&gt;&lt;font face=&quot;Comic Sans MS&quot;&gt;&lt;span style=&quot;background-color: initial;&quot;&gt;&amp;nbsp;be&lt;br&gt;&lt;/span&gt;&lt;br&gt;He/She/It must &lt;font color=&quot;#ff0000&quot;&gt;not&lt;/font&gt;&lt;/font&gt;&lt;font face=&quot;Comic Sans MS&quot;&gt;&lt;span style=&quot;background-color: initial;&quot;&gt;&amp;nbsp;be&lt;/span&gt;&lt;br&gt;&lt;br&gt;We must &lt;font color=&quot;#ff0000&quot;&gt;not&lt;/font&gt;&lt;/font&gt;&lt;font face=&quot;Comic Sans MS&quot;&gt;&lt;span style=&quot;background-color: initial;&quot;&gt;&amp;nbsp;be&lt;br&gt;&lt;/span&gt;&lt;br&gt;You must&lt;/font&gt;&lt;font face=&quot;Comic Sans MS&quot;&gt;&lt;span style=&quot;background-color: initial;&quot;&gt;&amp;nbsp;&lt;font color=&quot;#ff0000&quot;&gt;not&lt;/font&gt; be&lt;br&gt;&lt;/span&gt;&lt;br&gt;They must &lt;font color=&quot;#ff0000&quot;&gt;not&lt;/font&gt;&lt;/font&gt;&lt;font face=&quot;Comic Sans MS&quot;&gt;&lt;span style=&quot;background-color: initial;&quot;&gt;&amp;nbsp;be&lt;/span&gt;&lt;/font&gt;" style="text;strokeColor=none;fillColor=none;html=1;verticalAlign=middle;overflow=hidden;spacingTop=0;whiteSpace=wrap;horizontal=1;spacing=0;fontSize=16;fontFamily=Comic Sans MS;spacingLeft=20;fontColor=#66B2FF;" parent="1" vertex="1">
          <mxGeometry x="2600" y="370" width="230" height="240" as="geometry" />
        </mxCell>
        <mxCell id="wq_cmzW5N2Y1-mYz72yh-52" value="Yo no debo ser&lt;br&gt;&lt;br&gt;Yo no debo estar" style="text;html=1;strokeColor=none;fillColor=none;align=center;verticalAlign=middle;whiteSpace=wrap;rounded=0;fontFamily=Comic Sans MS;" parent="1" vertex="1">
          <mxGeometry x="2620" y="280" width="140" height="78.46" as="geometry" />
        </mxCell>
        <mxCell id="wq_cmzW5N2Y1-mYz72yh-53" value="&lt;font face=&quot;Comic Sans MS&quot;&gt;&lt;span style=&quot;background-color: initial;&quot;&gt;I do &lt;font color=&quot;#ff0000&quot;&gt;not&lt;/font&gt; have to be&lt;br&gt;&lt;/span&gt;&lt;br&gt;You do &lt;font color=&quot;#ff0000&quot;&gt;not&lt;/font&gt; have to&lt;/font&gt;&lt;font face=&quot;Comic Sans MS&quot;&gt;&lt;span style=&quot;background-color: initial;&quot;&gt;&amp;nbsp;be&lt;br&gt;&lt;/span&gt;&lt;br&gt;He/She/It does &lt;font color=&quot;#ff0000&quot;&gt;not&lt;/font&gt; have to&lt;/font&gt;&lt;font face=&quot;Comic Sans MS&quot;&gt;&lt;span style=&quot;background-color: initial;&quot;&gt;&amp;nbsp;be&lt;/span&gt;&lt;br&gt;&lt;br&gt;We do &lt;font color=&quot;#ff0000&quot;&gt;not&lt;/font&gt; have&lt;/font&gt;&lt;font face=&quot;Comic Sans MS&quot;&gt;&lt;span style=&quot;background-color: initial;&quot;&gt;&amp;nbsp;to be&lt;br&gt;&lt;/span&gt;&lt;br&gt;You do &lt;font color=&quot;#ff0000&quot;&gt;not&lt;/font&gt; have to&lt;/font&gt;&lt;font face=&quot;Comic Sans MS&quot;&gt;&lt;span style=&quot;background-color: initial;&quot;&gt;&amp;nbsp;be&lt;br&gt;&lt;/span&gt;&lt;br&gt;They do &lt;font color=&quot;#ff0000&quot;&gt;not&lt;/font&gt; have to&lt;/font&gt;&lt;font face=&quot;Comic Sans MS&quot;&gt;&lt;span style=&quot;background-color: initial;&quot;&gt;&amp;nbsp;be&lt;/span&gt;&lt;/font&gt;" style="text;strokeColor=none;fillColor=none;html=1;verticalAlign=middle;overflow=hidden;spacingTop=0;whiteSpace=wrap;horizontal=1;spacing=0;fontSize=16;fontFamily=Comic Sans MS;spacingLeft=20;fontColor=#66B2FF;" parent="1" vertex="1">
          <mxGeometry x="2825" y="379.61" width="265" height="223.85" as="geometry" />
        </mxCell>
        <mxCell id="wq_cmzW5N2Y1-mYz72yh-54" value="Yo no tengo que ser&lt;br&gt;&lt;br&gt;Yo no tengo que estar" style="text;html=1;strokeColor=none;fillColor=none;align=center;verticalAlign=middle;whiteSpace=wrap;rounded=0;fontFamily=Comic Sans MS;" parent="1" vertex="1">
          <mxGeometry x="2860" y="280" width="150" height="78.46" as="geometry" />
        </mxCell>
        <mxCell id="wq_cmzW5N2Y1-mYz72yh-55" value="&lt;font face=&quot;Comic Sans MS&quot;&gt;&lt;span style=&quot;background-color: initial;&quot;&gt;I may &lt;font color=&quot;#ff0000&quot;&gt;not&lt;/font&gt; be&lt;br&gt;&lt;/span&gt;&lt;br&gt;You may &lt;font color=&quot;#ff0000&quot;&gt;not&lt;/font&gt;&lt;/font&gt;&lt;font face=&quot;Comic Sans MS&quot;&gt;&lt;span style=&quot;background-color: initial;&quot;&gt;&amp;nbsp;be&lt;br&gt;&lt;/span&gt;&lt;br&gt;He/She/It may &lt;font color=&quot;#ff0000&quot;&gt;not&lt;/font&gt;&lt;/font&gt;&lt;font face=&quot;Comic Sans MS&quot;&gt;&lt;span style=&quot;background-color: initial;&quot;&gt;&amp;nbsp;be&lt;/span&gt;&lt;br&gt;&lt;br&gt;We may&lt;/font&gt;&lt;font face=&quot;Comic Sans MS&quot;&gt;&lt;span style=&quot;background-color: initial;&quot;&gt;&amp;nbsp;&lt;font color=&quot;#ff0000&quot;&gt;not&lt;/font&gt; be&lt;br&gt;&lt;/span&gt;&lt;br&gt;You may&lt;/font&gt;&lt;font face=&quot;Comic Sans MS&quot;&gt;&lt;span style=&quot;background-color: initial;&quot;&gt;&amp;nbsp;&lt;font color=&quot;#ff0000&quot;&gt;not&lt;/font&gt; be&lt;br&gt;&lt;/span&gt;&lt;br&gt;They may&lt;/font&gt;&lt;font face=&quot;Comic Sans MS&quot;&gt;&lt;span style=&quot;background-color: initial;&quot;&gt;&amp;nbsp;&lt;font color=&quot;#ff0000&quot;&gt;not&lt;/font&gt; be&lt;/span&gt;&lt;/font&gt;" style="text;strokeColor=none;fillColor=none;html=1;verticalAlign=middle;overflow=hidden;spacingTop=0;whiteSpace=wrap;horizontal=1;spacing=0;fontSize=16;fontFamily=Comic Sans MS;spacingLeft=20;fontColor=#66B2FF;" parent="1" vertex="1">
          <mxGeometry x="3120" y="379.61" width="210" height="230.39" as="geometry" />
        </mxCell>
        <mxCell id="wq_cmzW5N2Y1-mYz72yh-56" value="Yo puede que no sea&lt;br&gt;&lt;br&gt;Yo puede que no este" style="text;html=1;strokeColor=none;fillColor=none;align=center;verticalAlign=middle;whiteSpace=wrap;rounded=0;fontFamily=Comic Sans MS;" parent="1" vertex="1">
          <mxGeometry x="3130" y="280" width="170" height="78.46" as="geometry" />
        </mxCell>
        <mxCell id="dCN5y319V1dZhfIS2Bhl-7" value="&lt;font face=&quot;Comic Sans MS&quot;&gt;&lt;span style=&quot;background-color: initial;&quot;&gt;I ca&lt;font color=&quot;#ff0000&quot;&gt;n&#39;t&lt;/font&gt; be&lt;br&gt;&lt;/span&gt;&lt;br&gt;You ca&lt;/font&gt;&lt;font color=&quot;#ff0000&quot;&gt;n&#39;t&lt;/font&gt;&amp;nbsp;&lt;font face=&quot;Comic Sans MS&quot;&gt;&lt;span style=&quot;background-color: initial;&quot;&gt;be&lt;br&gt;&lt;/span&gt;&lt;br&gt;He/She/It ca&lt;/font&gt;&lt;font color=&quot;#ff0000&quot;&gt;n&#39;t&lt;/font&gt;&lt;font face=&quot;Comic Sans MS&quot;&gt;&lt;span style=&quot;background-color: initial;&quot;&gt;&amp;nbsp;be&lt;/span&gt;&lt;br&gt;&lt;br&gt;We ca&lt;/font&gt;&lt;font color=&quot;#ff0000&quot;&gt;n&#39;t&lt;/font&gt;&amp;nbsp;&lt;font face=&quot;Comic Sans MS&quot;&gt;&lt;span style=&quot;background-color: initial;&quot;&gt;be&lt;br&gt;&lt;/span&gt;&lt;br&gt;You ca&lt;/font&gt;&lt;font color=&quot;#ff0000&quot;&gt;n&#39;t&lt;/font&gt; &lt;font face=&quot;Comic Sans MS&quot;&gt;&lt;span style=&quot;background-color: initial;&quot;&gt;be&lt;br&gt;&lt;/span&gt;&lt;br&gt;They ca&lt;/font&gt;&lt;font color=&quot;#ff0000&quot;&gt;n&#39;t&lt;/font&gt;&amp;nbsp;&lt;font face=&quot;Comic Sans MS&quot;&gt;&lt;span style=&quot;background-color: initial;&quot;&gt;be&lt;/span&gt;&lt;/font&gt;" style="text;strokeColor=none;fillColor=none;html=1;verticalAlign=middle;overflow=hidden;spacingTop=0;whiteSpace=wrap;horizontal=1;spacing=0;fontSize=16;fontFamily=Comic Sans MS;spacingLeft=20;fontColor=#66B2FF;" parent="1" vertex="1">
          <mxGeometry x="1600" y="650" width="210" height="240" as="geometry" />
        </mxCell>
        <mxCell id="dCN5y319V1dZhfIS2Bhl-8" value="&lt;font face=&quot;Comic Sans MS&quot;&gt;&lt;span style=&quot;background-color: initial;&quot;&gt;I would&lt;font color=&quot;#ff0000&quot;&gt;n&#39;t&lt;/font&gt; be&lt;br&gt;&lt;/span&gt;&lt;br&gt;You&amp;nbsp;&lt;/font&gt;would&lt;font face=&quot;Comic Sans MS&quot;&gt;&lt;span style=&quot;background-color: initial;&quot;&gt;&lt;font color=&quot;#ff0000&quot;&gt;n&#39;t&lt;/font&gt; be&lt;br&gt;&lt;/span&gt;&lt;br&gt;He/She/It&amp;nbsp;&lt;/font&gt;would&lt;font face=&quot;Comic Sans MS&quot;&gt;&lt;span style=&quot;background-color: initial;&quot;&gt;&lt;font color=&quot;#ff0000&quot;&gt;n&#39;t&lt;/font&gt; be&lt;/span&gt;&lt;br&gt;&lt;br&gt;We&amp;nbsp;&lt;/font&gt;would&lt;font face=&quot;Comic Sans MS&quot;&gt;&lt;span style=&quot;background-color: initial;&quot;&gt;&lt;font color=&quot;#ff0000&quot;&gt;n&#39;t&lt;/font&gt; be&lt;br&gt;&lt;/span&gt;&lt;br&gt;You&amp;nbsp;&lt;/font&gt;would&lt;font face=&quot;Comic Sans MS&quot;&gt;&lt;span style=&quot;background-color: initial;&quot;&gt;&lt;font color=&quot;#ff0000&quot;&gt;n&#39;t&lt;/font&gt; be&lt;br&gt;&lt;/span&gt;&lt;br&gt;They&amp;nbsp;&lt;/font&gt;would&lt;font face=&quot;Comic Sans MS&quot;&gt;&lt;span style=&quot;background-color: initial;&quot;&gt;&lt;font color=&quot;#ff0000&quot;&gt;n&#39;t&lt;/font&gt; be&lt;/span&gt;&lt;/font&gt;" style="text;strokeColor=none;fillColor=none;html=1;verticalAlign=middle;overflow=hidden;spacingTop=0;whiteSpace=wrap;horizontal=1;spacing=0;fontSize=16;fontFamily=Comic Sans MS;spacingLeft=20;fontColor=#66B2FF;" parent="1" vertex="1">
          <mxGeometry x="1840" y="650" width="230" height="240" as="geometry" />
        </mxCell>
        <mxCell id="dCN5y319V1dZhfIS2Bhl-9" value="&lt;font face=&quot;Comic Sans MS&quot;&gt;&lt;span style=&quot;background-color: initial;&quot;&gt;I could&lt;font color=&quot;#ff0000&quot;&gt;n&#39;t&lt;/font&gt; be&lt;br&gt;&lt;/span&gt;&lt;br&gt;You c&lt;/font&gt;ould&lt;font face=&quot;Comic Sans MS&quot;&gt;&lt;span style=&quot;background-color: initial;&quot;&gt;&lt;font color=&quot;#ff0000&quot;&gt;n&#39;t&lt;/font&gt; be&lt;br&gt;&lt;/span&gt;&lt;br&gt;He/She/It c&lt;/font&gt;ould&lt;font face=&quot;Comic Sans MS&quot;&gt;&lt;span style=&quot;background-color: initial;&quot;&gt;&lt;font color=&quot;#ff0000&quot;&gt;n&#39;t&lt;/font&gt; be&lt;/span&gt;&lt;br&gt;&lt;br&gt;We&amp;nbsp;&lt;/font&gt;could&lt;font face=&quot;Comic Sans MS&quot;&gt;&lt;span style=&quot;background-color: initial;&quot;&gt;&lt;font color=&quot;#ff0000&quot;&gt;n&#39;t&lt;/font&gt; be&lt;br&gt;&lt;/span&gt;&lt;br&gt;You c&lt;/font&gt;ould&lt;font face=&quot;Comic Sans MS&quot;&gt;&lt;span style=&quot;background-color: initial;&quot;&gt;&lt;font color=&quot;#ff0000&quot;&gt;n&#39;t&lt;/font&gt; be&lt;br&gt;&lt;/span&gt;&lt;br&gt;They c&lt;/font&gt;ould&lt;font color=&quot;#ff0000&quot;&gt;n&#39;t&lt;/font&gt;&lt;font face=&quot;Comic Sans MS&quot;&gt;&lt;span style=&quot;background-color: initial;&quot;&gt;&amp;nbsp;be&lt;/span&gt;&lt;/font&gt;" style="text;strokeColor=none;fillColor=none;html=1;verticalAlign=middle;overflow=hidden;spacingTop=0;whiteSpace=wrap;horizontal=1;spacing=0;fontSize=16;fontFamily=Comic Sans MS;spacingLeft=20;fontColor=#66B2FF;" parent="1" vertex="1">
          <mxGeometry x="2100" y="656.54" width="240" height="226.92" as="geometry" />
        </mxCell>
        <mxCell id="dCN5y319V1dZhfIS2Bhl-10" value="&lt;font face=&quot;Comic Sans MS&quot;&gt;&lt;span style=&quot;background-color: initial;&quot;&gt;I should&lt;font color=&quot;#ff0000&quot;&gt;n&#39;t&lt;/font&gt; be&lt;br&gt;&lt;/span&gt;&lt;br&gt;You should&lt;/font&gt;&lt;font face=&quot;Comic Sans MS&quot;&gt;&lt;span style=&quot;background-color: initial;&quot;&gt;&lt;font color=&quot;#ff0000&quot;&gt;n&#39;t&lt;/font&gt; be&lt;br&gt;&lt;/span&gt;&lt;br&gt;He/She/It sh&lt;/font&gt;ould&lt;font face=&quot;Comic Sans MS&quot;&gt;&lt;span style=&quot;background-color: initial;&quot;&gt;&lt;font color=&quot;#ff0000&quot;&gt;n&#39;t&lt;/font&gt; be&lt;/span&gt;&lt;br&gt;&lt;br&gt;We sh&lt;/font&gt;ould&lt;font face=&quot;Comic Sans MS&quot;&gt;&lt;span style=&quot;background-color: initial;&quot;&gt;&lt;font color=&quot;#ff0000&quot;&gt;n&#39;t&lt;/font&gt; be&lt;br&gt;&lt;/span&gt;&lt;br&gt;You sh&lt;/font&gt;ould&lt;font face=&quot;Comic Sans MS&quot;&gt;&lt;span style=&quot;background-color: initial;&quot;&gt;&lt;font color=&quot;#ff0000&quot;&gt;n&#39;t&lt;/font&gt; be&lt;br&gt;&lt;/span&gt;&lt;br&gt;They sh&lt;/font&gt;ould&lt;font face=&quot;Comic Sans MS&quot;&gt;&lt;span style=&quot;background-color: initial;&quot;&gt;&lt;font color=&quot;#ff0000&quot;&gt;n&#39;t&lt;/font&gt; be&lt;/span&gt;&lt;/font&gt;" style="text;strokeColor=none;fillColor=none;html=1;verticalAlign=middle;overflow=hidden;spacingTop=0;whiteSpace=wrap;horizontal=1;spacing=0;fontSize=16;fontFamily=Comic Sans MS;spacingLeft=20;fontColor=#66B2FF;" parent="1" vertex="1">
          <mxGeometry x="2350" y="656.54" width="270" height="230" as="geometry" />
        </mxCell>
        <mxCell id="dCN5y319V1dZhfIS2Bhl-11" value="&lt;font face=&quot;Comic Sans MS&quot;&gt;&lt;span style=&quot;background-color: initial;&quot;&gt;I must&lt;font color=&quot;#ff0000&quot;&gt;n&#39;t&lt;/font&gt; be&lt;br&gt;&lt;/span&gt;&lt;br&gt;You must&lt;font color=&quot;#ff0000&quot;&gt;n&#39;t&lt;/font&gt;&lt;/font&gt;&lt;font face=&quot;Comic Sans MS&quot;&gt;&lt;span style=&quot;background-color: initial;&quot;&gt;&amp;nbsp;be&lt;br&gt;&lt;/span&gt;&lt;br&gt;He/She/It must&lt;font color=&quot;#ff0000&quot;&gt;n&#39;t&lt;/font&gt;&lt;/font&gt;&lt;font face=&quot;Comic Sans MS&quot;&gt;&lt;span style=&quot;background-color: initial;&quot;&gt;&amp;nbsp;be&lt;/span&gt;&lt;br&gt;&lt;br&gt;We must&lt;font color=&quot;#ff0000&quot;&gt;n&#39;t&lt;/font&gt;&lt;/font&gt;&lt;font face=&quot;Comic Sans MS&quot;&gt;&lt;span style=&quot;background-color: initial;&quot;&gt;&amp;nbsp;be&lt;br&gt;&lt;/span&gt;&lt;br&gt;You must&lt;/font&gt;&lt;font face=&quot;Comic Sans MS&quot;&gt;&lt;span style=&quot;background-color: initial;&quot;&gt;&lt;font color=&quot;#ff0000&quot;&gt;n&#39;t&lt;/font&gt; be&lt;br&gt;&lt;/span&gt;&lt;br&gt;They must&lt;font color=&quot;#ff0000&quot;&gt;n&#39;t&lt;/font&gt;&lt;/font&gt;&lt;font face=&quot;Comic Sans MS&quot;&gt;&lt;span style=&quot;background-color: initial;&quot;&gt;&amp;nbsp;be&lt;/span&gt;&lt;/font&gt;" style="text;strokeColor=none;fillColor=none;html=1;verticalAlign=middle;overflow=hidden;spacingTop=0;whiteSpace=wrap;horizontal=1;spacing=0;fontSize=16;fontFamily=Comic Sans MS;spacingLeft=20;fontColor=#66B2FF;" parent="1" vertex="1">
          <mxGeometry x="2600" y="651.54" width="230" height="240" as="geometry" />
        </mxCell>
        <mxCell id="dCN5y319V1dZhfIS2Bhl-12" value="&lt;font face=&quot;Comic Sans MS&quot;&gt;&lt;span style=&quot;background-color: initial;&quot;&gt;I do&lt;font color=&quot;#ff0000&quot;&gt;n&#39;t&lt;/font&gt; have to be&lt;br&gt;&lt;/span&gt;&lt;br&gt;You do&lt;font color=&quot;#ff0000&quot;&gt;n&#39;t&lt;/font&gt; have to&lt;/font&gt;&lt;font face=&quot;Comic Sans MS&quot;&gt;&lt;span style=&quot;background-color: initial;&quot;&gt;&amp;nbsp;be&lt;br&gt;&lt;/span&gt;&lt;br&gt;He/She/It does&lt;font color=&quot;#ff0000&quot;&gt;n&#39;t&lt;/font&gt; have to&lt;/font&gt;&lt;font face=&quot;Comic Sans MS&quot;&gt;&lt;span style=&quot;background-color: initial;&quot;&gt;&amp;nbsp;be&lt;/span&gt;&lt;br&gt;&lt;br&gt;We do&lt;font color=&quot;#ff0000&quot;&gt;n&#39;t&lt;/font&gt; have&lt;/font&gt;&lt;font face=&quot;Comic Sans MS&quot;&gt;&lt;span style=&quot;background-color: initial;&quot;&gt;&amp;nbsp;to be&lt;br&gt;&lt;/span&gt;&lt;br&gt;You do&lt;font color=&quot;#ff0000&quot;&gt;n&#39;t&lt;/font&gt; have to&lt;/font&gt;&lt;font face=&quot;Comic Sans MS&quot;&gt;&lt;span style=&quot;background-color: initial;&quot;&gt;&amp;nbsp;be&lt;br&gt;&lt;/span&gt;&lt;br&gt;They do&lt;font color=&quot;#ff0000&quot;&gt;n&#39;t&lt;/font&gt; have to&lt;/font&gt;&lt;font face=&quot;Comic Sans MS&quot;&gt;&lt;span style=&quot;background-color: initial;&quot;&gt;&amp;nbsp;be&lt;/span&gt;&lt;/font&gt;" style="text;strokeColor=none;fillColor=none;html=1;verticalAlign=middle;overflow=hidden;spacingTop=0;whiteSpace=wrap;horizontal=1;spacing=0;fontSize=16;fontFamily=Comic Sans MS;spacingLeft=20;fontColor=#66B2FF;" parent="1" vertex="1">
          <mxGeometry x="2830" y="658.07" width="265" height="223.85" as="geometry" />
        </mxCell>
        <mxCell id="dCN5y319V1dZhfIS2Bhl-15" value="" style="group" parent="1" vertex="1" connectable="0">
          <mxGeometry x="-180" y="130" width="370" height="390" as="geometry" />
        </mxCell>
        <mxCell id="wq_cmzW5N2Y1-mYz72yh-22" value="" style="rounded=1;whiteSpace=wrap;html=1;fillColor=#f5f5f5;fontColor=#333333;strokeColor=#666666;glass=0;shadow=0;arcSize=5;fontFamily=Comic Sans MS;" parent="dCN5y319V1dZhfIS2Bhl-15" vertex="1">
          <mxGeometry y="60" width="370" height="330" as="geometry" />
        </mxCell>
        <mxCell id="wq_cmzW5N2Y1-mYz72yh-23" value="Pasado simple" style="text;strokeColor=none;fillColor=none;html=1;fontSize=24;fontStyle=1;verticalAlign=middle;align=center;fontFamily=Comic Sans MS;" parent="dCN5y319V1dZhfIS2Bhl-15" vertex="1">
          <mxGeometry x="70" width="230" height="60" as="geometry" />
        </mxCell>
        <mxCell id="wq_cmzW5N2Y1-mYz72yh-24" value="&lt;span style=&quot;background-color: initial;&quot;&gt;I was &lt;font color=&quot;#ff0000&quot;&gt;not&lt;/font&gt;&lt;br&gt;&lt;/span&gt;&lt;br&gt;&lt;span style=&quot;background-color: initial;&quot;&gt;You were &lt;font color=&quot;#ff0000&quot;&gt;not&lt;/font&gt;&lt;br&gt;&lt;/span&gt;&lt;br&gt;&lt;span style=&quot;background-color: initial;&quot;&gt;He/She/It was &lt;font color=&quot;#ff0000&quot;&gt;not&lt;/font&gt;&lt;/span&gt;&lt;br&gt;&lt;span style=&quot;background-color: initial;&quot;&gt;&lt;br&gt;We were &lt;font color=&quot;#ff0000&quot;&gt;not&lt;/font&gt;&lt;br&gt;&lt;/span&gt;&lt;br&gt;&lt;span style=&quot;background-color: initial;&quot;&gt;You were &lt;font color=&quot;#ff0000&quot;&gt;not&lt;/font&gt;&lt;br&gt;&lt;/span&gt;&lt;br&gt;&lt;span style=&quot;background-color: initial;&quot;&gt;They were &lt;font color=&quot;#ff0000&quot;&gt;not&lt;/font&gt;&lt;/span&gt;" style="text;strokeColor=none;fillColor=none;html=1;verticalAlign=middle;overflow=hidden;spacingTop=0;whiteSpace=wrap;horizontal=1;spacing=0;fontSize=16;fontFamily=Comic Sans MS;spacingLeft=20;fontColor=#66B2FF;" parent="dCN5y319V1dZhfIS2Bhl-15" vertex="1">
          <mxGeometry y="150" width="190" height="240" as="geometry" />
        </mxCell>
        <mxCell id="wq_cmzW5N2Y1-mYz72yh-25" value="Yo no era, Tu no eras, Ella no era&lt;br&gt;&lt;br&gt;Yo no estaba, Tu no estabas, Ella no estaba" style="text;html=1;strokeColor=none;fillColor=none;align=center;verticalAlign=middle;whiteSpace=wrap;rounded=0;fontFamily=Comic Sans MS;" parent="dCN5y319V1dZhfIS2Bhl-15" vertex="1">
          <mxGeometry x="55" y="70" width="260" height="60" as="geometry" />
        </mxCell>
        <mxCell id="dCN5y319V1dZhfIS2Bhl-14" value="&lt;span style=&quot;background-color: initial;&quot;&gt;I was&lt;font color=&quot;#ff0000&quot;&gt;n&#39;t&lt;/font&gt;&lt;br&gt;&lt;/span&gt;&lt;br&gt;&lt;span style=&quot;background-color: initial;&quot;&gt;You were&lt;font color=&quot;#ff0000&quot;&gt;n&#39;t&lt;/font&gt;&lt;br&gt;&lt;/span&gt;&lt;br&gt;&lt;span style=&quot;background-color: initial;&quot;&gt;He/She/It was&lt;font color=&quot;#ff0000&quot;&gt;n&#39;t&lt;/font&gt;&lt;/span&gt;&lt;br&gt;&lt;span style=&quot;background-color: initial;&quot;&gt;&lt;br&gt;We were&lt;font color=&quot;#ff0000&quot;&gt;n&#39;t&lt;/font&gt;&lt;br&gt;&lt;/span&gt;&lt;br&gt;&lt;span style=&quot;background-color: initial;&quot;&gt;You were&lt;font color=&quot;#ff0000&quot;&gt;n&#39;t&lt;/font&gt;&lt;br&gt;&lt;/span&gt;&lt;br&gt;&lt;span style=&quot;background-color: initial;&quot;&gt;They were&lt;font color=&quot;#ff0000&quot;&gt;n&#39;t&lt;/font&gt;&lt;/span&gt;" style="text;strokeColor=none;fillColor=none;html=1;verticalAlign=middle;overflow=hidden;spacingTop=0;whiteSpace=wrap;horizontal=1;spacing=0;fontSize=16;fontFamily=Comic Sans MS;spacingLeft=20;fontColor=#66B2FF;" parent="dCN5y319V1dZhfIS2Bhl-15" vertex="1">
          <mxGeometry x="190" y="150" width="180" height="240" as="geometry" />
        </mxCell>
        <mxCell id="wq_cmzW5N2Y1-mYz72yh-27" value="" style="rounded=1;whiteSpace=wrap;html=1;fillColor=#f5f5f5;fontColor=#333333;strokeColor=#666666;glass=0;shadow=0;arcSize=5;fontFamily=Comic Sans MS;" parent="1" vertex="1">
          <mxGeometry x="480" y="1100" width="560" height="330" as="geometry" />
        </mxCell>
        <mxCell id="wq_cmzW5N2Y1-mYz72yh-28" value="Presente perfecto" style="text;strokeColor=none;fillColor=none;html=1;fontSize=24;fontStyle=1;verticalAlign=middle;align=center;fontFamily=Comic Sans MS;" parent="1" vertex="1">
          <mxGeometry x="480" y="1040" width="230" height="60" as="geometry" />
        </mxCell>
        <mxCell id="wq_cmzW5N2Y1-mYz72yh-29" value="&lt;span style=&quot;background-color: initial;&quot;&gt;I do &lt;font color=&quot;#ff0000&quot;&gt;not&lt;/font&gt; have been&lt;br&gt;&lt;/span&gt;&lt;br&gt;&lt;span style=&quot;background-color: initial;&quot;&gt;You do &lt;font color=&quot;#ff0000&quot;&gt;not&lt;/font&gt; have been&lt;br&gt;&lt;/span&gt;&lt;br&gt;&lt;span style=&quot;background-color: initial;&quot;&gt;He/She/It does &lt;font color=&quot;#ff0000&quot;&gt;dot&lt;/font&gt; have been&lt;/span&gt;&lt;br&gt;&lt;span style=&quot;background-color: initial;&quot;&gt;&lt;br&gt;We do &lt;font color=&quot;#ff0000&quot;&gt;not&lt;/font&gt; have been&lt;br&gt;&lt;/span&gt;&lt;br&gt;&lt;span style=&quot;background-color: initial;&quot;&gt;You do &lt;font color=&quot;#ff0000&quot;&gt;not&lt;/font&gt; have been&lt;br&gt;&lt;/span&gt;&lt;br&gt;&lt;span style=&quot;background-color: initial;&quot;&gt;They do &lt;font color=&quot;#ff0000&quot;&gt;not&lt;/font&gt; have been&lt;/span&gt;" style="text;strokeColor=none;fillColor=none;html=1;verticalAlign=middle;overflow=hidden;spacingTop=0;whiteSpace=wrap;horizontal=1;spacing=0;fontSize=16;fontFamily=Comic Sans MS;spacingLeft=20;fontColor=#66B2FF;" parent="1" vertex="1">
          <mxGeometry x="480" y="1190" width="260" height="240" as="geometry" />
        </mxCell>
        <mxCell id="wq_cmzW5N2Y1-mYz72yh-30" value="Yo no he sido, Tu no has sido, Ella no ha sido&lt;br&gt;&lt;br&gt;Yo no he estado, Tu no has estado, Ella no ha estado" style="text;html=1;strokeColor=none;fillColor=none;align=center;verticalAlign=middle;whiteSpace=wrap;rounded=0;fontFamily=Comic Sans MS;spacingTop=0;" parent="1" vertex="1">
          <mxGeometry x="570" y="1100" width="380" height="60" as="geometry" />
        </mxCell>
        <mxCell id="dH2ktReE65H0-K7HurxZ-1" value="&lt;span style=&quot;background-color: initial;&quot;&gt;I do&lt;font color=&quot;#ff0000&quot;&gt;n&#39;t&lt;/font&gt; have been&lt;br&gt;&lt;/span&gt;&lt;br&gt;&lt;span style=&quot;background-color: initial;&quot;&gt;You do&lt;font color=&quot;#ff0000&quot;&gt;n&#39;t&lt;/font&gt; have been&lt;br&gt;&lt;/span&gt;&lt;br&gt;&lt;span style=&quot;background-color: initial;&quot;&gt;He/She/It does&lt;font color=&quot;#ff0000&quot;&gt;n&#39;t&lt;/font&gt; have been&lt;/span&gt;&lt;br&gt;&lt;span style=&quot;background-color: initial;&quot;&gt;&lt;br&gt;We do&lt;font color=&quot;#ff0000&quot;&gt;n&#39;t&lt;/font&gt; have been&lt;br&gt;&lt;/span&gt;&lt;br&gt;&lt;span style=&quot;background-color: initial;&quot;&gt;You do&lt;font color=&quot;#ff0000&quot;&gt;n&#39;t&lt;/font&gt; have been&lt;br&gt;&lt;/span&gt;&lt;br&gt;&lt;span style=&quot;background-color: initial;&quot;&gt;They do&lt;font color=&quot;#ff0000&quot;&gt;n&#39;t&lt;/font&gt; have been&lt;/span&gt;" style="text;strokeColor=none;fillColor=none;html=1;verticalAlign=middle;overflow=hidden;spacingTop=0;whiteSpace=wrap;horizontal=1;spacing=0;fontSize=16;fontFamily=Comic Sans MS;spacingLeft=20;fontColor=#66B2FF;" vertex="1" parent="1">
          <mxGeometry x="780" y="1190" width="260" height="240" as="geometry" />
        </mxCell>
      </root>
    </mxGraphModel>
  </diagram>
</mxfile>
